<?xml version="1.0" encoding="UTF-8" standalone="no"?>
<!DOCTYPE svg PUBLIC "-//W3C//DTD SVG 1.1//EN" "http://www.w3.org/Graphics/SVG/1.1/DTD/svg11.dtd">
<svg width="100%" height="100%" viewBox="0 0 1641 1641" version="1.1" xmlns="http://www.w3.org/2000/svg" xmlns:xlink="http://www.w3.org/1999/xlink" xml:space="preserve" xmlns:serif="http://www.serif.com/" style="fill-rule:evenodd;clip-rule:evenodd;stroke-linejoin:round;stroke-miterlimit:2;">
    <g transform="matrix(1,0,0,1,-11783,-14479)">
        <g id="Iconly-Light-Outline-Arrow---Left" serif:id="Iconly/Light-Outline/Arrow - Left">
        </g>
        <g id="Artboard19" transform="matrix(1,0,0,1,-0.840467,0)">
            <rect x="11783.8" y="14479" width="1640.34" height="1640.34" style="fill:none;"/>
            <g transform="matrix(1,0,0,1,2.06218,0)">
                <g transform="matrix(0.552791,0,0,0.445132,5579.55,8484.89)">
                    <path d="M12286.9,14795.7C12290.4,14788.9 12296.4,14784.7 12302.9,14784.7C12309.4,14784.7 12315.5,14788.9 12318.9,14795.7C12344.4,14846.7 12394.1,14946.1 12420.7,14999.3C12424.3,15006.5 12424.5,15015.6 12421.2,15023C12417.9,15030.5 12411.5,15035.1 12404.7,15035.1C12352.6,15035.1 12253.3,15035.1 12201.1,15035.1C12194.3,15035.1 12188,15030.5 12184.7,15023C12181.3,15015.6 12181.5,15006.5 12185.1,14999.3C12211.8,14946.1 12261.4,14846.7 12286.9,14795.7Z" style="fill:rgb(113,112,122);"/>
                </g>
                <g transform="matrix(0.552791,0,0,0.445132,5962.25,8484.89)">
                    <path d="M12286.9,14795.7C12290.4,14788.9 12296.4,14784.7 12302.9,14784.7C12309.4,14784.7 12315.5,14788.9 12318.9,14795.7C12344.4,14846.7 12394.1,14946.1 12420.7,14999.3C12424.3,15006.5 12424.5,15015.6 12421.2,15023C12417.9,15030.5 12411.5,15035.1 12404.7,15035.1C12352.6,15035.1 12253.3,15035.1 12201.1,15035.1C12194.3,15035.1 12188,15030.5 12184.7,15023C12181.3,15015.6 12181.5,15006.5 12185.1,14999.3C12211.8,14946.1 12261.4,14846.7 12286.9,14795.7Z" style="fill:rgb(113,112,122);"/>
                </g>
                <g transform="matrix(0.552791,0,0,-0.445132,5770.9,21758.6)">
                    <path d="M12286.9,14795.7C12290.4,14788.9 12296.4,14784.7 12302.9,14784.7C12309.4,14784.7 12315.5,14788.9 12318.9,14795.7C12344.4,14846.7 12394.1,14946.1 12420.7,14999.3C12424.3,15006.5 12424.5,15015.6 12421.2,15023C12417.9,15030.5 12411.5,15035.1 12404.7,15035.1C12352.6,15035.1 12253.3,15035.1 12201.1,15035.1C12194.3,15035.1 12188,15030.5 12184.7,15023C12181.3,15015.6 12181.5,15006.5 12185.1,14999.3C12211.8,14946.1 12261.4,14846.7 12286.9,14795.7Z" style="fill:rgb(221,220,223);"/>
                </g>
                <g transform="matrix(0.552791,0,0,0.445132,5870.65,8342.18)">
                    <path d="M12286.9,14795.7C12290.4,14788.9 12296.4,14784.7 12302.9,14784.7C12309.4,14784.7 12315.5,14788.9 12318.9,14795.7C12344.4,14846.7 12394.1,14946.1 12420.7,14999.3C12424.3,15006.5 12424.5,15015.6 12421.2,15023C12417.9,15030.5 12411.5,15035.1 12404.7,15035.1C12352.6,15035.1 12253.3,15035.1 12201.1,15035.1C12194.3,15035.1 12188,15030.5 12184.7,15023C12181.3,15015.6 12181.5,15006.5 12185.1,14999.3C12211.8,14946.1 12261.4,14846.7 12286.9,14795.7Z" style="fill:rgb(200,198,203);"/>
                </g>
                <g transform="matrix(0.552791,0,0,0.445132,5671.14,8342.18)">
                    <path d="M12286.9,14795.7C12290.4,14788.9 12296.4,14784.7 12302.9,14784.7C12309.4,14784.7 12315.5,14788.9 12318.9,14795.7C12344.4,14846.7 12394.1,14946.1 12420.7,14999.3C12424.3,15006.5 12424.5,15015.6 12421.2,15023C12417.9,15030.5 12411.5,15035.1 12404.7,15035.1C12352.6,15035.1 12253.3,15035.1 12201.1,15035.1C12194.3,15035.1 12188,15030.5 12184.7,15023C12181.3,15015.6 12181.5,15006.5 12185.1,14999.3C12211.8,14946.1 12261.4,14846.7 12286.9,14795.7Z" style="fill:rgb(236,235,237);"/>
                </g>
                <g transform="matrix(0.552791,0,0,0.445132,5770.9,8199.46)">
                    <path d="M12286.9,14795.7C12290.4,14788.9 12296.4,14784.7 12302.9,14784.7C12309.4,14784.7 12315.5,14788.9 12318.9,14795.7C12344.4,14846.7 12394.1,14946.1 12420.7,14999.3C12424.3,15006.5 12424.5,15015.6 12421.2,15023C12417.9,15030.5 12411.5,15035.1 12404.7,15035.1C12352.6,15035.1 12253.3,15035.1 12201.1,15035.1C12194.3,15035.1 12188,15030.5 12184.7,15023C12181.3,15015.6 12181.5,15006.5 12185.1,14999.3C12211.8,14946.1 12261.4,14846.7 12286.9,14795.7Z" style="fill:rgb(242,242,243);"/>
                </g>
            </g>
            <g transform="matrix(0.355717,0,0,0.355717,7954.85,9866.09)">
                <g transform="matrix(512.179,0,0,512.179,13726.3,15397)">
                </g>
                <text x="12229.8px" y="15397px" style="font-family:'SFProRounded-Bold', 'SF Pro Rounded';font-weight:700;font-size:512.179px;fill:rgb(221,220,223);">DEL<tspan x="13113.6px 13373px " y="15397px 15397px ">TA</tspan></text>
            </g>
        </g>
    </g>
</svg>
